<?xml version="1.0" encoding="UTF-8"?>
<!DOCTYPE svg  PUBLIC '-//W3C//DTD SVG 1.1//EN'  'http://www.w3.org/Graphics/SVG/1.1/DTD/svg11.dtd'>
<svg width="458.85px" height="458.86px" enable-background="new 0 0 458.854 458.855" version="1.1" viewBox="0 0 458.854 458.855" xml:space="preserve" xmlns="http://www.w3.org/2000/svg">
	<path d="m190.79 150.71h-184.79c-3.317 0-6.007 2.689-6.007 6.005v54.616c0 1.183 0.43 2.225 1.029 3.155-0.593 0.93-1.029 1.973-1.029 3.155v54.613c0 1.193 0.436 2.232 1.029 3.165-0.588 0.934-1.029 1.979-1.029 3.161v54.621c0 1.019 0.317 1.938 0.766 2.781-0.449 0.837-0.766 1.751-0.766 2.768v54.61c0 3.326 2.689 6.007 6.007 6.007h184.79c3.319 0 6.009-2.681 6.009-6.007v-54.61c0-1.018-0.32-1.932-0.769-2.769 0.449-0.844 0.769-1.763 0.769-2.781v-54.621c0-1.193-0.438-2.227-1.032-3.16 0.588-0.933 1.032-1.983 1.032-3.165v-54.613c0-1.188-0.432-2.225-1.032-3.154 0.594-0.931 1.032-1.979 1.032-3.155v-54.616c0-3.311-2.699-6.006-6.014-6.006zm-17.549 231.14h-153.72v-31.558h153.72v31.558zm0-62.534h-153.72v-31.546h153.72v31.546zm0-60.13h-153.72v-31.542h153.72v31.542zm0-60.93h-153.72v-31.546h153.72v31.546zm285.61 38.421c0 47.869-38.944 86.809-86.803 86.809h-156.69c1.11-2.703 1.795-5.626 1.795-8.728v-9.599h154.9c37.759 0 68.487-30.72 68.487-68.487s-30.725-68.479-68.487-68.479c-3.555 0-7.305 0.342-11.458 1.042l-5.86 0.988-3.292-4.949c-12.756-19.158-34.08-30.6-57.029-30.6-2.301 0-4.641 0.118-6.941 0.353l-7.724 0.785-2.032-7.497c-8.076-29.738-35.229-50.515-66.016-50.515-34.46 0-62.975 25.617-67.711 58.797h-18.519c4.837-43.313 41.645-77.12 86.23-77.12 36.527 0 68.993 23.035 81.425 56.879 27.683-0.348 53.505 12.266 70.167 34.003 3.021-0.331 5.921-0.496 8.761-0.496 47.857 0.012 86.801 38.951 86.801 86.814zm-312.93-54.711c0-4.38 3.551-7.935 7.935-7.935 4.38 0 7.935 3.554 7.935 7.935 0 4.383-3.555 7.939-7.935 7.939-4.383 1e-3 -7.935-3.55-7.935-7.939zm0 59.74c0-4.377 3.551-7.935 7.935-7.935 4.38 0 7.935 3.558 7.935 7.935 0 4.389-3.555 7.945-7.935 7.945-4.383 1e-3 -7.935-3.556-7.935-7.945zm0 61.264c0-4.382 3.551-7.934 7.935-7.934 4.38 0 7.935 3.552 7.935 7.934 0 4.384-3.555 7.94-7.935 7.94-4.383 1e-3 -7.935-3.556-7.935-7.94zm0 62.699c0-4.383 3.551-7.935 7.935-7.935 4.38 0 7.935 3.552 7.935 7.935 0 4.377-3.555 7.935-7.935 7.935-4.383 0-7.935-3.544-7.935-7.935z"/>
</svg>

