<?xml version="1.0" encoding="UTF-8"?>
<svg width="362.73" height="512" viewBox="-52.8456 -133.222 362.734 512" xmlns="http://www.w3.org/2000/svg">
<g transform="translate(-127.48 -133.22)">
<polygon points="437.37 100.62 404.32 470.82 255.78 512 107.64 470.88 74.633 100.62" fill="#e44d26"/>
<polygon points="256 480.52 376.03 447.25 404.27 130.89 256 130.89" fill="#f16529"/>
<polygon points="191.76 221.72 256 221.72 256 176.3 255.84 176.3 142.13 176.3 143.22 188.49 154.38 313.63 256 313.63 256 268.22 195.91 268.22" fill="#ebebeb"/>
<polygon points="201.99 336.33 177.42 336.33 156.41 336.33 162.77 407.63 255.79 433.46 256 433.4 256 386.15 255.8 386.21 205.23 372.55" fill="#ebebeb"/>
<path d="m108.38 0h23.077v22.8h21.11v-22.8h23.078v69.044h-23.077v-23.12h-21.11v23.12h-23.077v-69.044z"/>
<path d="m205.99 22.896h-20.316v-22.896h63.72v22.896h-20.325v46.148h-23.078v-46.148z"/>
<path d="m259.51 0h24.063l14.802 24.26 14.787-24.26h24.072v69.044h-22.982v-34.222l-15.877 24.549h-0.397l-15.888-24.549v34.222h-22.58v-69.044z"/>
<path d="m348.72 0h23.084v46.222h32.453v22.822h-55.537v-69.044z"/>
<polygon points="255.84 313.63 311.76 313.63 306.49 372.52 255.84 386.19 255.84 433.44 348.94 407.63 349.62 399.96 360.29 280.41 361.4 268.22 349.16 268.22 255.84 268.22" fill="#fff"/>
<polygon points="255.84 221.6 255.84 221.72 365.38 221.72 365.38 221.72 365.53 221.72 366.44 211.51 368.51 188.49 369.6 176.3 255.84 176.3 255.84 204.51" fill="#fff"/>
</g>
</svg>

