<?xml version="1.0" encoding="UTF-8"?>
<!DOCTYPE svg  PUBLIC '-//W3C//DTD SVG 1.1//EN'  'http://www.w3.org/Graphics/SVG/1.1/DTD/svg11.dtd'>
<svg enable-background="new 0 0 442 442" version="1.1" viewBox="0 0 442 442" xml:space="preserve" xmlns="http://www.w3.org/2000/svg">
	<path d="m232.31 138.01c-3.904 3.906-3.904 10.237 2e-3 14.143s10.238 3.905 14.142-2e-3l8.257-8.26c2.97-2.971 3.767-7.481 1.994-11.29-5.51-11.84-8.304-24.089-8.304-36.408 0-25.079 10.917-48.7 29.331-65.02l0.032 65.461c1e-3 3.279 1.611 6.35 4.307 8.217l47.446 32.854c3.423 2.37 7.958 2.372 11.382 2e-3l47.463-32.837c2.7-1.868 4.311-4.941 4.311-8.225l-7e-3 -65.457c18.412 16.305 29.33 39.907 29.336 64.965 0 23.19-9.029 44.993-25.425 61.392-16.383 16.387-38.159 25.408-61.325 25.408h-0.068c-7.971-6e-3 -23.618-3.865-28.975-5.352-3.473-0.966-7.199 0.015-9.748 2.563l-30.402 30.403c-3.905 3.905-3.905 10.237 0 14.143 1.953 1.952 4.512 2.929 7.071 2.929s5.119-0.977 7.071-2.929l26.353-26.354c7.347 1.817 19.976 4.591 28.614 4.597h0.084c28.505-1e-3 55.307-11.104 75.467-31.268 20.172-20.176 31.281-47 31.281-75.534-9e-3 -38.434-20.863-74.074-54.423-93.013-3.096-1.747-6.887-1.72-9.958 0.073-3.07 1.793-4.958 5.081-4.957 8.637l8e-3 79.557-37.46 25.916-37.447-25.933-0.039-79.563c-2e-3 -3.555-1.891-6.842-4.961-8.633-3.07-1.792-6.861-1.817-9.957-0.069-33.557 18.956-54.403 54.618-54.403 93.069 0 12.988 2.48 25.854 7.383 38.343l-3.476 3.475z"/>
	<path d="m205.83 270.8l-138.72 138.73c-5.213 5.216-12.143 8.09-19.513 8.095h-0.015c-7.368-1e-3 -14.299-2.873-19.511-8.085-5.211-5.217-8.077-12.156-8.068-19.541 8e-3 -7.363 2.879-14.275 8.097-19.476l119.32-119.33c3.905-3.905 3.905-10.236 0-14.142-3.905-3.904-10.237-3.905-14.142 1e-3l-119.31 119.32c-8.992 8.961-13.952 20.896-13.967 33.606-0.015 12.731 4.928 24.699 13.922 33.703 8.994 8.994 20.946 13.946 33.656 13.946h0.026c12.711-7e-3 24.661-4.964 33.647-13.955l138.72-138.72c3.905-3.905 3.905-10.237 0-14.143-3.906-3.904-10.237-3.904-14.142 0z"/>
	<path d="m47.436 377.85c-3.294 2e-3 -6.388 1.289-8.672 3.585-4.807 4.777-4.831 12.583-0.054 17.398 0.012 0.013 0.024 0.024 0.036 0.037 2.395 2.389 5.539 3.585 8.688 3.585 3.156 0 6.317-1.202 8.73-3.61 4.786-4.809 4.772-12.615-0.011-17.383-2.325-2.33-5.417-3.612-8.709-3.612h-8e-3z"/>
	<path d="m374.38 327.16c-1.036-1.035-2.286-1.83-3.662-2.33l-28.677-10.398-103.59-103.59 16.743-16.742c3.905-3.905 3.906-10.237 0-14.143-2.964-2.962-7.325-3.678-10.963-2.144l-156.68-156.66c-9.476-9.507-22.096-14.751-35.535-14.767h-0.058c-13.439 0-26.071 5.226-35.576 14.72-9.517 9.517-14.754 22.165-14.746 35.615 7e-3 13.439 5.248 26.075 14.755 35.577l156.68 156.68c-1.534 3.637-0.82 7.998 2.144 10.962 3.906 3.904 10.238 3.906 14.142 0l16.739-16.739 103.59 103.59 10.399 28.678c0.499 1.376 1.294 2.627 2.33 3.662l58.124 58.123c1.953 1.952 4.512 2.929 7.071 2.929s5.119-0.977 7.071-2.929l37.819-37.819c1.875-1.876 2.929-4.419 2.929-7.071s-1.054-5.195-2.929-7.071l-58.123-58.124zm-157.14-123.39c-0.021 0.021-0.043 0.044-0.064 0.065l-30.475 30.475-156.17-156.16c-5.732-5.729-8.891-13.344-8.895-21.443-4e-3 -8.104 3.152-15.726 8.884-21.458 5.725-5.719 13.337-8.866 21.438-8.866h0.035c8.093 9e-3 15.689 3.165 21.403 8.897l156.18 156.16-12.268 12.268c-0.021 0.021-0.043 0.042-0.065 0.064zm170.38 212.26l-49.48-49.48-10.399-28.678c-0.499-1.376-1.294-2.627-2.33-3.662l-105.16-105.16 4.068-4.067 105.16 105.16c1.036 1.035 2.286 1.83 3.662 2.33l28.677 10.398 49.48 49.48-23.677 23.678z"/>
	<path d="m58.981 49.573c-3.905-3.904-10.237-3.904-14.142 0-3.905 3.905-3.905 10.237 0 14.143l137.95 137.95c1.952 1.952 4.512 2.929 7.071 2.929s5.119-0.977 7.071-2.929c3.905-3.905 3.905-10.237 0-14.143l-137.95-137.95z"/>
</svg>

